# xmcd
#
# Track frame offsets: 
#        150
#        13287
#        27987
#        49167
#        58786
#        77134
#        87526
#        104407
#        118523
#        136840
#        153589
#
# Disc length: 2195 seconds
#
# Revision: 1
# Processed by: cddbd v1.5.2PL0 Copyright (c) Steve Scherf et al.
# Submitted via: ExactAudioCopy v0.99pb5
#
DISCID=9308910b
DTITLE=The Sugarman 3 - What The World Needs Now
DYEAR=2012
DGENRE=Blues
TTITLE0=Rudy's Intervention
TTITLE1=Your Friendly Neighborhood Sugarman
TTITLE2=Got To Get Back To My Baby
TTITLE3=But It's Alright
TTITLE4=Witch's Boogaloo
TTITLE5=Brother T.
TTITLE6=What The World Needs Now
TTITLE7=Dirty Water
TTITLE8=Jealous Moon
TTITLE9=Mellow Meeting
TTITLE10=Love Went Away
EXTD=
EXTT0=
EXTT1=
EXTT2=
EXTT3=
EXTT4=
EXTT5=
EXTT6=
EXTT7=
EXTT8=
EXTT9=
EXTT10=
PLAYORDER=
